<?xml version="1.0" encoding="UTF-8" standalone="no"?>
<svg
   width="24"
   height="24"
   viewBox="0 0 24 24"
   fill="none"
   version="1.1"
   id="svg11"
   sodipodi:docname="comm-menu-ashy4.svg"
   xml:space="preserve"
   inkscape:export-filename="comm-menu-ashy2.svg"
   inkscape:export-xdpi="96"
   inkscape:export-ydpi="96"
   inkscape:version="1.4.2 (ebf0e940d0, 2025-05-08)"
   xmlns:inkscape="http://www.inkscape.org/namespaces/inkscape"
   xmlns:sodipodi="http://sodipodi.sourceforge.net/DTD/sodipodi-0.dtd"
   xmlns="http://www.w3.org/2000/svg"
   xmlns:svg="http://www.w3.org/2000/svg"><sodipodi:namedview
     id="namedview11"
     pagecolor="#ffffff"
     bordercolor="#000000"
     borderopacity="0.25"
     inkscape:showpageshadow="2"
     inkscape:pageopacity="0.0"
     inkscape:pagecheckerboard="0"
     inkscape:deskcolor="#d1d1d1"
     inkscape:zoom="17.717778"
     inkscape:cx="19.669509"
     inkscape:cy="13.178853"
     inkscape:window-width="1920"
     inkscape:window-height="1005"
     inkscape:window-x="0"
     inkscape:window-y="0"
     inkscape:window-maximized="1"
     inkscape:current-layer="svg11"><inkscape:page
       x="0"
       y="0"
       width="24"
       height="24"
       id="page2"
       margin="0"
       bleed="0" /></sodipodi:namedview><path
     fill-rule="evenodd"
     clip-rule="evenodd"
     d="M 9.59604,1.11359 C 9.71588,1.11486 9.83043,1.0996 9.93969,1.06779 11.3755,0.973736 12.8111,0.977551 14.2467,1.07924 c 1.3017,0.10142 2.5618,0.38384 3.7802,0.84726 2.0256,0.83394 3.4117,2.28039 4.1581,4.33935 0.4269,1.23964 0.6789,2.51436 0.7561,3.82415 0.1067,1.6447 0.0685,3.2858 -0.1146,4.9233 -0.137,1.1509 -0.4349,2.2577 -0.8935,3.3203 -0.8506,1.8425 -2.229,3.1134 -4.1352,3.8127 -1.5447,0.5219 -3.1331,0.7967 -4.7653,0.8243 C 11.1966,23.0661 9.37913,22.9287 7.57997,22.5585 4.26839,21.8208 2.22559,19.8018 1.45158,16.5017 1.12311,15.0161 0.974199,13.5124 1.00483,11.9906 0.968176,10.3724 1.14,8.77709 1.52031,7.20471 2.33171,4.11908 4.2905,2.20701 7.39669,1.46852 8.12048,1.29157 8.8536,1.17326 9.59604,1.11359 Z"
     fill="url(#paint0_radial_313_57)"
     id="path1"
     style="fill:url(#paint0_radial_313_57)" /><g
     id="g3"
     transform="matrix(1.0522164,0,0,1.052216,-27.108616,-40.000706)"><path
       id="path2-7-6"
       style="fill:#ffffff;fill-opacity:1;stroke-width:0.00505587"
       d="m 40.183033,44.776842 c -0.663601,-0.0073 -1.288449,0.177661 -1.808593,0.552735 -1.217964,0.878268 -1.255007,0.885832 -1.828125,0.423828 -0.47504,-0.382942 -1.109291,-0.720752 -1.59961,-0.853516 -0.486018,-0.131598 -1.365216,-0.1312 -1.853515,0 -1.211122,0.325408 -2.238408,1.188982 -2.859375,2.402344 -0.912062,1.782152 -0.903331,3.922529 0.02539,5.720703 0.641602,1.24226 1.725849,2.095105 3.03125,2.386719 0.654584,0.146227 1.396554,0.0789 2.105469,-0.191406 0.492745,-0.187887 0.483021,-0.155357 0.228516,-0.681641 -0.251643,-0.520365 -0.292632,-0.843074 -0.128907,-1.041016 0.492749,-0.595727 1.913899,-0.765639 2.773438,-0.330078 0.54584,0.276599 0.629622,0.649914 0.302734,1.357422 -0.108137,0.234054 -0.197265,0.444287 -0.197265,0.466797 v 0.002 0.002 0.002 c 0.0402,0.08691 0.692459,0.330303 1.134765,0.419922 1.046042,0.211955 2.172623,-0.08438 3.154297,-0.828125 0.896013,-0.678846 1.545019,-1.768307 1.845703,-3.103516 0.13964,-0.620077 0.164044,-1.81655 0.05078,-2.449218 -0.116748,-0.652128 -0.409562,-1.467527 -0.71289,-1.978516 -0.338067,-0.569511 -1.147592,-1.408141 -1.626953,-1.685547 -0.67073,-0.388148 -1.373508,-0.586463 -2.03711,-0.59375 z m -7.4375,2.064453 h 0.002 0.002 c 8.01e-4,6.3e-5 0.005,-3.8e-5 0.0059,0 -0.02958,0.102757 -0.06386,0.202278 -0.105469,0.300782 -0.03933,0.111726 -0.06427,0.229624 -0.07422,0.347656 -0.04416,0.176894 -0.07564,0.355498 -0.0918,0.537109 0.01217,0.184518 -0.01251,0.377576 0.01367,0.564453 0.0084,0.133464 0.0355,0.264542 0.08008,0.390625 0.02,0.08149 0.05906,0.158959 0.111328,0.22461 0.06233,0.07242 0.143972,0.123932 0.236328,0.148437 0.07293,-0.0018 0.14602,-0.01165 0.216797,-0.0293 0.173114,-0.0797 0.332759,-0.185239 0.474609,-0.3125 0.124633,-0.09186 0.256929,-0.171219 0.396485,-0.238281 0.2084,-0.108644 0.450326,-0.135567 0.677734,-0.07617 0.307471,0.08845 0.590242,0.245013 0.828125,0.458985 0.113194,0.09886 0.214237,0.21104 0.300781,0.333984 0.213108,0.312281 0.322526,0.684625 0.310547,1.0625 0.01337,0.116072 0.0016,0.23285 -0.03516,0.34375 -0.08719,0.450536 -0.276948,0.875381 -0.552735,1.242187 -0.128608,0.171752 -0.271764,0.331287 -0.429687,0.476563 -0.05848,0.08913 -0.139558,0.162178 -0.234375,0.210937 -0.384227,0.296124 -0.851128,0.464593 -1.335938,0.482422 -0.155667,-0.02628 -0.31594,-0.03081 -0.472656,-0.05078 -0.177507,-0.04244 -0.345869,-0.117074 -0.496094,-0.220703 -0.23246,-0.197416 -0.419601,-0.441511 -0.550781,-0.716797 -0.203015,-0.39092 -0.312614,-0.823257 -0.320312,-1.263672 0.0091,-0.148907 0.0296,-0.297424 0.06055,-0.443359 0.06852,0.135488 0.119796,0.27944 0.152343,0.427734 0.07245,0.187238 0.172346,0.361669 0.298828,0.517578 0.181546,0.243454 0.447918,0.40916 0.746094,0.466797 0.114103,0.02297 0.232113,0.02769 0.347656,0.01367 0.325457,-0.02869 0.634124,-0.151172 0.890625,-0.353515 0.08601,-0.07356 0.182548,-0.129189 0.25586,-0.212891 0.08741,-0.0937 0.16931,-0.192333 0.246094,-0.294922 0.23155,-0.304184 0.393003,-0.655406 0.472656,-1.029297 0.01218,-0.158016 0.03601,-0.293125 0.04687,-0.443359 -0.02683,-0.106954 0.0179,-0.240344 -0.08008,-0.314453 -0.07379,-0.01678 -0.152772,-0.0095 -0.222657,0.01953 -0.187906,0.09674 -0.36352,0.21373 -0.52539,0.349609 -0.193506,0.113101 -0.345773,0.277695 -0.535156,0.404297 -0.10389,0.05615 -0.175801,0.139422 -0.28125,0.195313 -0.193265,0.137466 -0.40113,0.254269 -0.619141,0.347656 -0.167079,0.06768 -0.35044,0.08547 -0.527344,0.05078 -0.104047,-0.03056 -0.199621,-0.08325 -0.283203,-0.152344 -0.08358,-0.0691 -0.153539,-0.153558 -0.203125,-0.25 -0.137142,-0.28719 -0.216178,-0.598405 -0.236328,-0.916015 -0.0096,-0.161675 0.03009,-0.315347 0.03711,-0.490235 0.107752,-0.539466 0.292823,-1.059026 0.550782,-1.544921 0.0917,-0.169559 0.205193,-0.327095 0.335937,-0.46875 0.04043,-0.03521 0.06643,-0.08555 0.115234,-0.0957 z m 8.113282,0.01758 c 0.15563,0.0262 0.315634,0.03043 0.472656,0.04883 0.177173,0.04392 0.345571,0.119343 0.496094,0.222656 0.233444,0.195085 0.422461,0.437861 0.55664,0.710937 0.204566,0.390875 0.314463,0.824505 0.320313,1.265625 -0.009,0.148907 -0.02963,0.297425 -0.06055,0.44336 -0.0676,-0.135879 -0.118822,-0.279719 -0.152344,-0.427735 -0.07289,-0.187433 -0.173752,-0.361689 -0.300781,-0.517578 -0.18423,-0.24209 -0.452672,-0.406466 -0.751953,-0.460937 -0.114029,-0.02269 -0.230095,-0.02831 -0.345703,-0.01563 -0.325467,0.02998 -0.635641,0.153299 -0.892578,0.355468 -0.08571,0.072 -0.183896,0.13697 -0.25586,0.212891 -0.08719,0.09396 -0.168929,0.192574 -0.246094,0.294922 -0.226851,0.303004 -0.386381,0.651594 -0.466796,1.021484 -0.0093,0.150494 -0.03378,0.291575 -0.04492,0.44336 0.02526,0.106693 -0.01788,0.23839 0.08008,0.3125 0.07382,0.01755 0.150967,0.01027 0.220703,-0.01953 0.18748,-0.09673 0.363167,-0.212772 0.525391,-0.347657 0.195373,-0.114392 0.345819,-0.279648 0.535156,-0.40625 0.103908,-0.05615 0.174463,-0.129687 0.28125,-0.193359 0.192958,-0.137875 0.400924,-0.254715 0.61914,-0.347656 0.167051,-0.06778 0.35045,-0.08557 0.527344,-0.05078 0.104372,0.03203 0.201769,0.08389 0.285156,0.154297 0.08329,0.07041 0.150283,0.158378 0.199219,0.25586 0.137151,0.28719 0.21813,0.596451 0.238281,0.914062 0.0096,0.161675 -0.03014,0.315346 -0.03711,0.490235 -0.106972,0.5381 -0.292544,1.05892 -0.550781,1.542968 -0.09174,0.169531 -0.205194,0.327142 -0.335938,0.46875 -0.04318,0.03761 -0.07319,0.08846 -0.126953,0.09375 0.02944,-0.102794 0.06368,-0.202351 0.105469,-0.300781 0.03798,-0.111615 0.0641,-0.228275 0.07422,-0.345703 0.0442,-0.176894 0.07368,-0.357461 0.08984,-0.539063 -0.01374,-0.184787 0.01195,-0.376654 -0.01758,-0.5625 -0.0079,-0.134244 -0.03411,-0.266208 -0.08008,-0.392578 -0.01885,-0.08153 -0.05701,-0.157358 -0.109375,-0.222656 -0.06221,-0.07297 -0.144027,-0.12626 -0.236328,-0.152344 -0.0728,0.0026 -0.145854,0.01245 -0.216797,0.0293 -0.173087,0.07971 -0.332723,0.185239 -0.474609,0.3125 -0.124894,0.09271 -0.258037,0.173191 -0.398438,0.240234 -0.208094,0.107752 -0.449115,0.133539 -0.675781,0.07422 -0.307266,-0.08906 -0.589852,-0.245551 -0.828125,-0.458984 -0.113193,-0.09941 -0.214331,-0.212502 -0.300781,-0.335938 -0.211066,-0.311259 -0.3175,-0.680873 -0.302735,-1.05664 -0.01421,-0.116073 -0.0024,-0.23498 0.03516,-0.345703 0.08357,-0.448513 0.268382,-0.87102 0.539062,-1.238282 0.133437,-0.170208 0.28123,-0.329479 0.44336,-0.472656 0.05246,-0.09302 0.131104,-0.166846 0.226562,-0.214844 0.384988,-0.295287 0.852988,-0.464926 1.337891,-0.482422 z m -3.798829,0.414063 c 0.0841,0.0023 0.167821,0.01512 0.25,0.03516 0.16436,0.04008 0.317828,0.114563 0.451172,0.21875 0.09323,0.0955 0.162076,0.211635 0.199219,0.339844 0.01876,0.08014 0.01876,0.164014 0,0.244141 -0.01876,0.08013 -0.05515,0.155245 -0.107422,0.21875 -0.111987,0.145499 -0.260593,0.25867 -0.429687,0.330078 -0.169094,0.07141 -0.352878,0.09742 -0.535156,0.07617 -0.170209,-0.0077 -0.336914,-0.05803 -0.482422,-0.146485 -0.09091,-0.05347 -0.168809,-0.125947 -0.228516,-0.21289 -0.0598,-0.08694 -0.09982,-0.184998 -0.117188,-0.289063 -0.0077,-0.07768 0.0023,-0.156582 0.02734,-0.230469 0.02516,-0.0739 0.06575,-0.142315 0.119141,-0.199218 0.149408,-0.191083 0.362918,-0.319601 0.601562,-0.363282 0.08315,-0.01557 0.167859,-0.02376 0.251953,-0.02148 z m 0.04883,1.650391 c 0.03203,0.0016 0.06413,0.006 0.0957,0.01172 0.129073,0.02983 0.249986,0.08453 0.357422,0.16211 0.07939,0.04712 0.14805,0.113275 0.197265,0.191406 0.04921,0.07813 0.07776,0.1678 0.08594,0.259766 -0.03547,0.209144 -0.04929,0.420846 -0.04102,0.632812 0.06584,0.43879 0.252501,0.850999 0.537109,1.191406 0.124431,0.211428 0.315025,0.372566 0.439454,0.583985 -0.239016,-0.04741 -0.473767,-0.112782 -0.703125,-0.195313 -0.281916,-0.09533 -0.543336,-0.240935 -0.773438,-0.429687 -0.134365,-0.09844 -0.256024,-0.213127 -0.359375,-0.34375 -0.171601,-0.190396 -0.309403,-0.409986 -0.408203,-0.646485 -0.121365,-0.272334 -0.173052,-0.569754 -0.152344,-0.867187 0.02591,-0.105616 0.06892,-0.206181 0.128907,-0.296875 0.08422,-0.09678 0.193366,-0.170409 0.314453,-0.212891 0.06054,-0.02124 0.122123,-0.03405 0.185547,-0.03906 0.03171,-0.0025 0.06367,-0.0036 0.0957,-0.002 z" /><path
       style="fill:#ffffff;fill-opacity:1;stroke-width:0.00505587"
       d="m 36.461817,57.795714 c -3.695249,-0.282008 -6.745281,-2.258425 -7.918698,-5.131307 -0.675502,-1.653836 -0.720044,-3.270649 -0.138355,-5.022092 0.196819,-0.592614 0.359662,-0.88633 0.885961,-1.597993 0.613072,-0.828996 0.717036,-1.167677 0.853053,-2.778963 0.0465,-0.550762 0.111578,-1.150671 0.144634,-1.333132 0.06308,-0.348175 0.261776,-0.932222 0.317149,-0.932222 0.01781,0 0.350944,0.310504 0.740301,0.69001 0.78639,0.766492 1.134231,1.030141 1.507193,1.142386 0.297278,0.08947 0.549222,0.04644 1.209455,-0.206547 1.764484,-0.676115 4.33229,-0.659492 6.389644,0.04136 0.324418,0.110516 0.678687,0.201161 0.787264,0.201433 0.359424,9.01e-4 0.748784,-0.261534 1.607608,-1.08355 C 43.298164,41.353294 43.687913,41 43.713134,41 c 0.07457,0 0.09857,0.132759 0.274298,1.516763 0.22928,1.805794 0.37694,2.479226 0.640516,2.921172 0.06449,0.108139 0.300937,0.450875 0.52543,0.761635 0.478645,0.662578 0.751212,1.223651 0.943503,1.942182 0.676396,2.527471 -0.109958,5.294455 -2.038498,7.17297 -1.451242,1.413599 -3.580656,2.298918 -5.965637,2.48026 -0.815875,0.06203 -0.827525,0.06204 -1.630929,7.27e-4 z m 1.138244,-1.258764 c 0.101042,-0.162031 0.257496,-0.494689 0.347672,-0.73924 l 0.163957,-0.444637 0.325471,0.156655 c 0.612088,0.29461 1.159277,0.394501 1.984471,0.362273 0.592721,-0.02315 0.818598,-0.05731 1.182138,-0.178814 2.272757,-0.759575 3.736407,-3.003287 3.735505,-5.726362 -3.97e-4,-1.195134 -0.225769,-2.174667 -0.733127,-3.186381 -0.885554,-1.765872 -2.312812,-2.762483 -4.074296,-2.844956 -1.005063,-0.04706 -1.678883,0.109754 -2.347681,0.54635 -0.936136,0.611115 -1.07229,0.625884 -1.768481,0.191829 -1.064474,-0.663669 -1.501267,-0.787866 -2.589066,-0.736167 -1.755104,0.08342 -3.133812,0.998079 -4.039872,2.680144 -0.794129,1.47427 -1.012565,3.50183 -0.565869,5.252493 0.407315,1.596322 1.382469,2.864921 2.720548,3.539215 1.17276,0.590987 2.135229,0.622678 3.819994,0.125781 l 0.449412,-0.132547 0.13272,0.409635 c 0.161547,0.498604 0.438444,0.975209 0.61863,1.064806 0.21723,0.108018 0.428772,-0.0048 0.637874,-0.340077 z"
       id="path3-3-5" /></g><defs
     id="defs11"><radialGradient
       id="paint0_radial_313_57"
       cx="0"
       cy="0"
       r="1"
       gradientUnits="userSpaceOnUse"
       gradientTransform="matrix(0,11,-11,0,12,1)"><stop
         stop-color="#1D4775"
         id="stop8" /><stop
         offset="1"
         stop-color="#002A43"
         id="stop9" /></radialGradient></defs></svg>
