<?xml version="1.0" encoding="UTF-8" standalone="no"?>
<svg
   width="24"
   height="24"
   viewBox="0 0 24 24"
   fill="none"
   version="1.1"
   id="svg11"
   sodipodi:docname="logo-community.svg"
   xml:space="preserve"
   inkscape:export-filename="comm-menu-ashy2.svg"
   inkscape:export-xdpi="96"
   inkscape:export-ydpi="96"
   inkscape:version="1.4.2 (ebf0e940d0, 2025-05-08)"
   xmlns:inkscape="http://www.inkscape.org/namespaces/inkscape"
   xmlns:sodipodi="http://sodipodi.sourceforge.net/DTD/sodipodi-0.dtd"
   xmlns:xlink="http://www.w3.org/1999/xlink"
   xmlns="http://www.w3.org/2000/svg"
   xmlns:svg="http://www.w3.org/2000/svg"><sodipodi:namedview
     id="namedview11"
     pagecolor="#ffffff"
     bordercolor="#000000"
     borderopacity="0.25"
     inkscape:showpageshadow="2"
     inkscape:pageopacity="0.0"
     inkscape:pagecheckerboard="0"
     inkscape:deskcolor="#d1d1d1"
     inkscape:zoom="17.877474"
     inkscape:cx="20.248946"
     inkscape:cy="9.2015237"
     inkscape:window-width="1920"
     inkscape:window-height="1005"
     inkscape:window-x="0"
     inkscape:window-y="0"
     inkscape:window-maximized="1"
     inkscape:current-layer="svg11"><inkscape:page
       x="0"
       y="0"
       width="24"
       height="24"
       id="page2"
       margin="0"
       bleed="0" /></sodipodi:namedview><defs
     id="defs11"><radialGradient
       id="paint0_radial_313_57"
       cx="0"
       cy="0"
       r="1"
       gradientUnits="userSpaceOnUse"
       gradientTransform="matrix(0,11,-11,0,12,1)"><stop
         stop-color="#1D4775"
         id="stop8" /><stop
         offset="1"
         stop-color="#002A43"
         id="stop9" /></radialGradient><linearGradient
       inkscape:collect="always"
       xlink:href="#linearGradient14"
       id="linearGradient29"
       gradientUnits="userSpaceOnUse"
       gradientTransform="matrix(1.3089304,0,0,1.3089299,-36.650051,-52.688362)"
       x1="30.60556"
       y1="41.000004"
       x2="46.335583"
       y2="57.841599" /><linearGradient
       id="linearGradient14"
       inkscape:collect="always"><stop
         style="stop-color:#1d82eb;stop-opacity:1"
         offset="0"
         id="stop13" /><stop
         style="stop-color:#9167e7;stop-opacity:0.83529413"
         offset="1"
         id="stop14" /></linearGradient></defs><path
     id="path2-7-6-6-6"
     style="fill:#d4d4d4;fill-opacity:1;stroke-width:0.00661778;opacity:1"
     d="M 15.946745,5.9213844 C 15.078128,5.9118058 14.260252,6.1539305 13.579425,6.6448762 11.985184,7.7944667 11.936707,7.8043674 11.186528,7.1996366 10.56474,6.6983933 9.7345483,6.2562238 9.092757,6.0824443 c -0.6361686,-0.1722519 -1.7869818,-0.171732 -2.4261235,0 -1.5852713,0.4259368 -2.9299207,1.5562942 -3.7427212,3.1444988 -1.1938299,2.3327119 -1.1823978,5.1343159 0.033214,7.4879999 0.8398072,1.62603 2.259008,2.742346 3.967694,3.124048 0.8567999,0.1914 1.8279832,0.103275 2.7559136,-0.250538 0.6449631,-0.245931 0.6322381,-0.203351 0.2991012,-0.892219 -0.3293796,-0.681122 -0.3830322,-1.103525 -0.1687203,-1.362618 0.6449762,-0.779765 2.5051532,-1.002168 3.6302292,-0.432049 0.714476,0.362048 0.824133,0.850692 0.396268,1.776771 -0.141552,0.30636 -0.258212,0.581541 -0.258212,0.611004 v 0.0026 0.0026 0.0026 c 0.05262,0.113762 0.906384,0.432343 1.48533,0.549649 1.369193,0.277434 2.843813,-0.110452 4.128752,-1.083958 1.172819,-0.888561 2.022329,-2.314589 2.415898,-4.062285 0.182777,-0.811637 0.214722,-2.377736 0.06643,-3.205854 C 21.523,10.641104 21.139719,9.5738046 20.74268,8.9049555 20.300173,8.1595225 19.240568,7.0618145 18.61312,6.6987095 17.735172,6.1906505 16.81529,5.9310703 15.946685,5.9215315 Z M 6.2115752,8.6236092 h 0.00249 0.00249 c 0.00104,8.21e-5 0.00622,-4.97e-5 0.00746,0 -0.038688,0.1345023 -0.083595,0.2647663 -0.1380563,0.3937018 -0.0515,0.1462416 -0.084093,0.3005617 -0.097154,0.4550571 -0.057845,0.2315422 -0.09902,0.4653223 -0.1201679,0.7030379 0.015923,0.241521 -0.016421,0.49422 0.017913,0.738829 0.011196,0.174695 0.046525,0.346267 0.1048671,0.511301 0.026123,0.106659 0.077251,0.208066 0.1457192,0.293999 0.081605,0.09479 0.1884497,0.162218 0.3093391,0.194293 0.095413,-0.0024 0.1911242,-0.01525 0.2837755,-0.03835 0.2265899,-0.10432 0.4355527,-0.242465 0.6212284,-0.40904 0.1631348,-0.120243 0.336296,-0.224115 0.5189737,-0.311894 0.2727787,-0.142208 0.5894449,-0.177447 0.8871031,-0.09971 0.4024631,0.115777 0.7725828,0.320705 1.0839621,0.60078 0.1481573,0.129401 0.2804168,0.276236 0.3936938,0.437161 0.278949,0.408754 0.422167,0.896126 0.406492,1.390738 0.01754,0.15193 0.0025,0.304785 -0.04603,0.449945 -0.114072,0.58972 -0.362505,1.145811 -0.7234949,1.625936 -0.1683346,0.224811 -0.3557145,0.433631 -0.5624257,0.623787 -0.076505,0.11666 -0.1826777,0.212279 -0.306789,0.276101 -0.5029265,0.387607 -1.1140663,0.60812 -1.7486425,0.631457 -0.203763,-0.0344 -0.4135469,-0.04033 -0.6186783,-0.06647 C 6.4032965,16.968721 6.1829265,16.871036 5.9862914,16.735393 5.6820152,16.476988 5.4370642,16.157486 5.2653584,15.797155 4.999633,15.285468 4.8561655,14.719569 4.8460893,14.143097 c 0.01244,-0.194909 0.038688,-0.389307 0.079241,-0.580326 0.089691,0.177345 0.156803,0.365768 0.1994091,0.559874 0.094791,0.245081 0.2255948,0.473399 0.391143,0.677473 0.2376364,0.318665 0.5862976,0.535562 0.9765821,0.611005 0.1493641,0.03007 0.3038284,0.03625 0.4550583,0.01789 0.4259991,-0.03756 0.8300296,-0.197873 1.1657659,-0.462726 0.1125797,-0.09628 0.2389426,-0.169099 0.3349152,-0.278659 0.1144457,-0.122644 0.2216141,-0.251751 0.3221148,-0.386033 0.3030819,-0.398155 0.5144083,-0.85788 0.6186658,-1.347278 0.015923,-0.206831 0.047147,-0.383679 0.061328,-0.580325 -0.03508,-0.139996 0.023387,-0.314594 -0.1048671,-0.411596 -0.096532,-0.02197 -0.1999689,-0.01244 -0.2914508,0.02556 -0.2459586,0.126627 -0.4758202,0.279758 -0.687694,0.457615 -0.2532856,0.14804 -0.4525952,0.363483 -0.700482,0.529195 -0.1359913,0.07349 -0.2301104,0.182494 -0.3681418,0.255652 -0.2529622,0.179933 -0.5250443,0.33282 -0.8104121,0.455057 -0.2186907,0.08858 -0.4587031,0.111871 -0.6902566,0.06647 C 5.6608179,13.711936 5.5357238,13.64297 5.4263163,13.552535 5.3168465,13.462085 5.2253398,13.351538 5.1604416,13.225302 4.9809361,12.849391 4.8774747,12.442031 4.8511025,12.026302 4.8385383,11.814681 4.8905365,11.613536 4.8997419,11.384619 5.0407837,10.678496 5.2830229,9.9984287 5.6206749,9.3624256 5.7407184,9.1404856 5.8892614,8.9342819 6.060395,8.7488663 6.1132639,8.702777 6.1473488,8.6368837 6.2112269,8.6236018 Z m 10.6197108,0.023014 c 0.203713,0.034296 0.413149,0.039832 0.618678,0.063915 0.231914,0.057484 0.452334,0.1562096 0.649355,0.2914396 0.305557,0.2553519 0.552971,0.5731289 0.728608,0.9305663 0.267753,0.5116279 0.411607,1.0792199 0.419257,1.6566149 -0.01244,0.194908 -0.03881,0.389308 -0.07924,0.580327 -0.08845,-0.177856 -0.155522,-0.366132 -0.199397,-0.559875 -0.09541,-0.245337 -0.227436,-0.473426 -0.393705,-0.677474 -0.241145,-0.316879 -0.592518,-0.532035 -0.984258,-0.603334 -0.149252,-0.02971 -0.301179,-0.03706 -0.452496,-0.02046 -0.426011,0.03925 -0.832007,0.200657 -1.168328,0.465283 -0.112207,0.09424 -0.240709,0.179284 -0.334903,0.278659 -0.114072,0.122991 -0.221116,0.252066 -0.322115,0.386032 -0.296936,0.39661 -0.50575,0.85289 -0.611003,1.337051 -0.01244,0.196986 -0.04416,0.381651 -0.05884,0.580327 0.03309,0.139654 -0.02339,0.312036 0.104868,0.409041 0.09666,0.02298 0.197605,0.01345 0.288875,-0.02556 0.245399,-0.126613 0.475373,-0.278504 0.687707,-0.455059 0.255724,-0.149732 0.452657,-0.366041 0.700482,-0.531753 0.136003,-0.07349 0.228356,-0.169751 0.368142,-0.253094 0.252564,-0.180468 0.52477,-0.333404 0.810399,-0.455057 0.218666,-0.08872 0.458716,-0.112007 0.690257,-0.06647 0.136625,0.04192 0.264108,0.109806 0.373254,0.201963 0.108972,0.09217 0.19671,0.207306 0.260762,0.334903 0.179518,0.375912 0.285517,0.780714 0.31189,1.196444 0.01256,0.211621 -0.03943,0.412765 -0.04864,0.641683 -0.140009,0.704336 -0.38292,1.386052 -0.720933,2.019637 -0.120043,0.221904 -0.268586,0.428206 -0.43972,0.613561 -0.05648,0.04922 -0.09579,0.115789 -0.16617,0.122718 0.03856,-0.13455 0.08335,-0.264863 0.138056,-0.393701 0.04976,-0.146096 0.08384,-0.298796 0.09715,-0.452502 0.05784,-0.231541 0.09641,-0.467891 0.117555,-0.705594 -0.01804,-0.241874 0.01567,-0.493015 -0.02301,-0.736274 -0.01,-0.175715 -0.04466,-0.348447 -0.104867,-0.513857 -0.02463,-0.106721 -0.07464,-0.20597 -0.143169,-0.291441 -0.08148,-0.09551 -0.188525,-0.165266 -0.30934,-0.199408 -0.09529,0.0034 -0.190912,0.0163 -0.283763,0.03835 -0.226565,0.104332 -0.435515,0.242465 -0.62124,0.409041 -0.163471,0.12135 -0.337752,0.226694 -0.521524,0.314449 -0.272381,0.14104 -0.587865,0.174794 -0.884553,0.09714 -0.40219,-0.116573 -0.772073,-0.321408 -1.08395,-0.600777 -0.14817,-0.130121 -0.280553,-0.27815 -0.393705,-0.439719 -0.276275,-0.407417 -0.415587,-0.891216 -0.396256,-1.383068 -0.01853,-0.151932 -0.0025,-0.307573 0.04603,-0.452501 0.109345,-0.587073 0.351286,-1.140104 0.705595,-1.620824 0.174654,-0.222791 0.368104,-0.431265 0.580326,-0.6186735 0.06867,-0.1217602 0.171607,-0.2183897 0.296551,-0.2812166 0.503922,-0.3865091 1.116505,-0.6085536 1.751206,-0.6314551 z m -4.972402,0.5419785 c 0.110091,0.00299 0.219673,0.019792 0.327239,0.046027 0.215133,0.052458 0.41601,0.1499549 0.590552,0.2863281 0.122034,0.1250032 0.212148,0.2770157 0.260762,0.4448316 0.02451,0.1048916 0.02451,0.2146826 0,0.3195626 -0.02451,0.10488 -0.07215,0.203206 -0.140606,0.28633 -0.14659,0.190447 -0.341098,0.33858 -0.562426,0.432048 -0.22134,0.09347 -0.4619,0.127516 -0.700482,0.09971 -0.222796,-0.01008 -0.441001,-0.07596 -0.631466,-0.191739 -0.119048,-0.06999 -0.220955,-0.164855 -0.299101,-0.278658 -0.07825,-0.113798 -0.130667,-0.242149 -0.153395,-0.378363 -0.01,-0.101683 0.0025,-0.204955 0.03583,-0.3016675 0.03296,-0.096731 0.08608,-0.1862802 0.155944,-0.2607619 0.195565,-0.2501148 0.475037,-0.4183362 0.787411,-0.4755105 0.108848,-0.020376 0.219711,-0.031099 0.329778,-0.028114 z m 0.06394,2.1602463 c 0.04192,0.0021 0.08397,0.0078 0.125268,0.01534 0.168944,0.03905 0.327215,0.110639 0.467846,0.21219 0.103872,0.06168 0.193787,0.148269 0.2582,0.250537 0.06444,0.102267 0.101757,0.219639 0.112455,0.340016 -0.0464,0.273754 -0.06456,0.550858 -0.05374,0.828306 0.08621,0.574345 0.330512,1.113897 0.703045,1.559467 0.162874,0.276744 0.41234,0.487663 0.575214,0.764395 -0.31286,-0.06205 -0.620134,-0.147624 -0.920342,-0.255651 -0.369013,-0.12478 -0.711193,-0.315367 -1.012384,-0.56243 -0.175873,-0.128851 -0.335114,-0.278968 -0.470397,-0.449945 -0.224612,-0.249215 -0.404975,-0.536643 -0.534299,-0.846203 -0.158868,-0.356466 -0.226515,-0.745768 -0.199409,-1.135087 0.03396,-0.138245 0.09019,-0.269877 0.168733,-0.388588 0.110216,-0.126679 0.253099,-0.223054 0.411593,-0.27866 0.07924,-0.0278 0.159851,-0.04457 0.242862,-0.05113 0.04155,-0.0032 0.08335,-0.0047 0.125268,-0.0026 z" /><path
     style="fill:url(#linearGradient29);fill-opacity:1;stroke-width:0.00661778"
     d="M 11.075926,22.962174 C 6.2391043,22.593046 2.2468294,20.006054 0.71090655,16.245654 -0.17328565,14.080898 -0.23157829,11.964603 0.52980874,9.6720869 0.78742342,8.8963967 1.0005784,8.5119451 1.6894666,7.5804272 2.4919422,6.4953293 2.6280205,6.0520191 2.8060582,3.9429594 2.8668885,3.2220505 2.9521008,2.4368117 2.9953662,2.1979831 3.0779661,1.7422465 3.338019,0.9777699 3.4104929,0.9777699 c 0.023262,0 0.4593625,0.4064279 0.9690064,0.9031746 C 5.408826,2.8842289 5.8641331,3.2293269 6.352306,3.3762478 6.7414212,3.493358 7.0711989,3.4370346 7.9354004,3.1058922 10.244988,2.2209051 13.606071,2.2426634 16.299002,3.16003 c 0.424643,0.1446576 0.888359,0.2633057 1.030471,0.2636617 0.470459,0.00118 0.980115,-0.3423297 2.104245,-1.418291 0.590515,-0.5651998 1.100669,-1.0276369 1.133684,-1.0276369 0.09765,0 0.129012,0.1737722 0.359036,1.9853364 0.300108,2.3636582 0.493385,3.2451335 0.838389,3.823609 0.08447,0.1415469 0.393904,0.5901639 0.687756,0.9969274 0.626503,0.8672679 0.983275,1.6016719 1.234968,2.5421784 0.885361,3.308282 -0.143915,6.93007 -2.668251,9.388915 -1.899574,1.850302 -4.686823,3.009122 -7.808602,3.246486 -1.067915,0.0812 -1.083166,0.08121 -2.134772,9.52e-4 z m 1.489883,-1.647634 c 0.13226,-0.212086 0.337043,-0.647512 0.455084,-0.967613 l 0.214598,-0.581999 0.426024,0.205051 c 0.801181,0.385623 1.517412,0.516374 2.59753,0.474189 0.775842,-0.0303 1.071498,-0.07501 1.547343,-0.234055 2.974878,-0.99423 4.890698,-3.931091 4.889516,-7.495405 C 22.695382,11.150362 22.400386,9.8682207 21.73629,8.54396 20.577167,6.2325572 18.708978,4.928062 16.403321,4.8201112 15.087769,4.7585096 14.205778,4.9637716 13.330369,5.5352448 12.105029,6.3351515 11.926817,6.3544828 11.015556,5.786336 9.6222298,4.91764 9.0504992,4.755075 7.6266459,4.8227447 5.329336,4.9319408 3.5247022,6.1291605 2.3387343,8.330866 1.2992692,10.26058 1.0133541,12.914514 1.598047,15.20601 c 0.533155,2.089474 1.8095599,3.749981 3.5610138,4.632584 1.5350645,0.773561 2.7948624,0.815041 5.0001062,0.164639 l 0.58825,-0.173496 0.173721,0.536184 c 0.211451,0.652638 0.573895,1.27648 0.809741,1.393757 0.284335,0.141387 0.561231,-0.0063 0.83493,-0.445138 z"
     id="path3-3-5-0-3" /></svg>
